<?xml version="1.0" encoding="UTF-8" standalone="no"?>
<!DOCTYPE svg PUBLIC "-//W3C//DTD SVG 1.1//EN"
 "http://www.w3.org/Graphics/SVG/1.1/DTD/svg11.dtd">
<!-- Generated by graphviz version 12.2.1 (20241206.2353)
 -->
<!-- Title: G Pages: 1 -->
<svg width="3290pt" height="86pt"
 viewBox="0.00 0.00 3290.38 86.40" xmlns="http://www.w3.org/2000/svg" xmlns:xlink="http://www.w3.org/1999/xlink">
<g id="graph0" class="graph" transform="scale(1 1) rotate(0) translate(25.2 61.2)">
<title>G</title>
<!-- n0 -->
<g id="node1" class="node">
<title>n0</title>
<path fill="#243e36" stroke="#b8c4ba" d="M137.04,-36C137.04,-36 12,-36 12,-36 6,-36 0,-30 0,-24 0,-24 0,-12 0,-12 0,-6 6,0 12,0 12,0 137.04,0 137.04,0 143.04,0 149.04,-6 149.04,-12 149.04,-12 149.04,-24 149.04,-24 149.04,-30 143.04,-36 137.04,-36"/>
<text text-anchor="middle" x="74.52" y="-15.22" font-family="PingFang SC" font-size="12.00" fill="#ffffff">带着当前文件/问题阅读</text>
</g>
<!-- n1 -->
<g id="node2" class="node">
<title>n1</title>
<path fill="#e1eee9" stroke="#b8c4ba" d="M408.83,-36C408.83,-36 241.04,-36 241.04,-36 235.04,-36 229.04,-30 229.04,-24 229.04,-24 229.04,-12 229.04,-12 229.04,-6 235.04,0 241.04,0 241.04,0 408.83,0 408.83,0 414.83,0 420.83,-6 420.83,-12 420.83,-12 420.83,-24 420.83,-24 420.83,-30 414.83,-36 408.83,-36"/>
<text text-anchor="middle" x="324.93" y="-15.22" font-family="PingFang SC" font-size="12.00" fill="#203c33">Phase 3 · 043 / 044 填空答案</text>
</g>
<!-- n0&#45;&gt;n1 -->
<g id="edge1" class="edge">
<title>n0&#45;&gt;n1</title>
<path fill="none" stroke="#8b9c92" d="M149.38,-18C170.67,-18 194.33,-18 217.19,-18"/>
<polygon fill="#8b9c92" stroke="#8b9c92" points="217.18,-21.5 227.18,-18 217.18,-14.5 217.18,-21.5"/>
<text text-anchor="middle" x="189.04" y="-22.95" font-family="PingFang SC" font-size="9.00" fill="#52675c">阅读路径</text>
</g>
<!-- n2 -->
<g id="node3" class="node">
<title>n2</title>
<path fill="#e1eee9" stroke="#b8c4ba" d="M757.87,-36C757.87,-36 512.83,-36 512.83,-36 506.83,-36 500.83,-30 500.83,-24 500.83,-24 500.83,-12 500.83,-12 500.83,-6 506.83,0 512.83,0 512.83,0 757.87,0 757.87,0 763.87,0 769.87,-6 769.87,-12 769.87,-12 769.87,-24 769.87,-24 769.87,-30 763.87,-36 757.87,-36"/>
<text text-anchor="middle" x="635.35" y="-15.22" font-family="PingFang SC" font-size="12.00" fill="#203c33">043.py（关卡 3&#45;8 · 检索质量评估）填空答案</text>
</g>
<!-- n1&#45;&gt;n2 -->
<g id="edge2" class="edge">
<title>n1&#45;&gt;n2</title>
<path fill="none" stroke="#8b9c92" d="M420.99,-18C442.58,-18 466.01,-18 489.16,-18"/>
<polygon fill="#8b9c92" stroke="#8b9c92" points="488.98,-21.5 498.98,-18 488.98,-14.5 488.98,-21.5"/>
<text text-anchor="middle" x="460.83" y="-22.95" font-family="PingFang SC" font-size="9.00" fill="#52675c">阅读路径</text>
</g>
<!-- n3 -->
<g id="node4" class="node">
<title>n3</title>
<path fill="#e1eee9" stroke="#b8c4ba" d="M1012.41,-36C1012.41,-36 861.87,-36 861.87,-36 855.87,-36 849.87,-30 849.87,-24 849.87,-24 849.87,-12 849.87,-12 849.87,-6 855.87,0 861.87,0 861.87,0 1012.41,0 1012.41,0 1018.41,0 1024.41,-6 1024.41,-12 1024.41,-12 1024.41,-24 1024.41,-24 1024.41,-30 1018.41,-36 1012.41,-36"/>
<text text-anchor="middle" x="937.14" y="-15.22" font-family="PingFang SC" font-size="12.00" fill="#203c33">填空 1（recall@k：命中率）</text>
</g>
<!-- n2&#45;&gt;n3 -->
<g id="edge3" class="edge">
<title>n2&#45;&gt;n3</title>
<path fill="none" stroke="#8b9c92" d="M770.02,-18C793.03,-18 816.55,-18 838.38,-18"/>
<polygon fill="#8b9c92" stroke="#8b9c92" points="838.12,-21.5 848.12,-18 838.12,-14.5 838.12,-21.5"/>
<text text-anchor="middle" x="809.87" y="-22.95" font-family="PingFang SC" font-size="9.00" fill="#52675c">阅读路径</text>
</g>
<!-- n4 -->
<g id="node5" class="node">
<title>n4</title>
<path fill="#e1eee9" stroke="#b8c4ba" d="M1346.45,-36C1346.45,-36 1116.41,-36 1116.41,-36 1110.41,-36 1104.41,-30 1104.41,-24 1104.41,-24 1104.41,-12 1104.41,-12 1104.41,-6 1110.41,0 1116.41,0 1116.41,0 1346.45,0 1346.45,0 1352.45,0 1358.45,-6 1358.45,-12 1358.45,-12 1358.45,-24 1358.45,-24 1358.45,-30 1352.45,-36 1346.45,-36"/>
<text text-anchor="middle" x="1231.43" y="-15.22" font-family="PingFang SC" font-size="12.00" fill="#203c33">填空 2（NDCG@k：归一化折损累计增益）</text>
</g>
<!-- n3&#45;&gt;n4 -->
<g id="edge4" class="edge">
<title>n3&#45;&gt;n4</title>
<path fill="none" stroke="#8b9c92" d="M1024.65,-18C1046.06,-18 1069.53,-18 1092.72,-18"/>
<polygon fill="#8b9c92" stroke="#8b9c92" points="1092.56,-21.5 1102.56,-18 1092.56,-14.5 1092.56,-21.5"/>
<text text-anchor="middle" x="1064.41" y="-22.95" font-family="PingFang SC" font-size="9.00" fill="#52675c">阅读路径</text>
</g>
<!-- n5 -->
<g id="node6" class="node">
<title>n5</title>
<path fill="#e1eee9" stroke="#b8c4ba" d="M1619.74,-36C1619.74,-36 1450.45,-36 1450.45,-36 1444.45,-36 1438.45,-30 1438.45,-24 1438.45,-24 1438.45,-12 1438.45,-12 1438.45,-6 1444.45,0 1450.45,0 1450.45,0 1619.74,0 1619.74,0 1625.74,0 1631.74,-6 1631.74,-12 1631.74,-12 1631.74,-24 1631.74,-24 1631.74,-30 1625.74,-36 1619.74,-36"/>
<text text-anchor="middle" x="1535.09" y="-15.22" font-family="PingFang SC" font-size="12.00" fill="#203c33">填空 3（MRR：平均倒数排名）</text>
</g>
<!-- n4&#45;&gt;n5 -->
<g id="edge5" class="edge">
<title>n4&#45;&gt;n5</title>
<path fill="none" stroke="#8b9c92" d="M1358.62,-18C1381.3,-18 1404.75,-18 1426.84,-18"/>
<polygon fill="#8b9c92" stroke="#8b9c92" points="1426.74,-21.5 1436.74,-18 1426.74,-14.5 1426.74,-21.5"/>
<text text-anchor="middle" x="1398.45" y="-22.95" font-family="PingFang SC" font-size="9.00" fill="#52675c">阅读路径</text>
</g>
<!-- n6 -->
<g id="node7" class="node">
<title>n6</title>
<path fill="#e1eee9" stroke="#b8c4ba" d="M1985.28,-36C1985.28,-36 1723.74,-36 1723.74,-36 1717.74,-36 1711.74,-30 1711.74,-24 1711.74,-24 1711.74,-12 1711.74,-12 1711.74,-6 1717.74,0 1723.74,0 1723.74,0 1985.28,0 1985.28,0 1991.28,0 1997.28,-6 1997.28,-12 1997.28,-12 1997.28,-24 1997.28,-24 1997.28,-30 1991.28,-36 1985.28,-36"/>
<text text-anchor="middle" x="1854.51" y="-15.22" font-family="PingFang SC" font-size="12.00" fill="#203c33">044.py（关卡 3&#45;9 · LangGraph 进阶）填空答案</text>
</g>
<!-- n5&#45;&gt;n6 -->
<g id="edge6" class="edge">
<title>n5&#45;&gt;n6</title>
<path fill="none" stroke="#8b9c92" d="M1632.19,-18C1653.67,-18 1676.98,-18 1700.13,-18"/>
<polygon fill="#8b9c92" stroke="#8b9c92" points="1699.97,-21.5 1709.97,-18 1699.97,-14.5 1699.97,-21.5"/>
<text text-anchor="middle" x="1671.74" y="-22.95" font-family="PingFang SC" font-size="9.00" fill="#52675c">阅读路径</text>
</g>
<!-- n7 -->
<g id="node8" class="node">
<title>n7</title>
<path fill="#e1eee9" stroke="#b8c4ba" d="M2245.07,-36C2245.07,-36 2089.28,-36 2089.28,-36 2083.28,-36 2077.28,-30 2077.28,-24 2077.28,-24 2077.28,-12 2077.28,-12 2077.28,-6 2083.28,0 2089.28,0 2089.28,0 2245.07,0 2245.07,0 2251.07,0 2257.07,-6 2257.07,-12 2257.07,-12 2257.07,-24 2257.07,-24 2257.07,-30 2251.07,-36 2245.07,-36"/>
<text text-anchor="middle" x="2167.17" y="-15.22" font-family="PingFang SC" font-size="12.00" fill="#203c33">填空 1（checkpoint 持久化）</text>
</g>
<!-- n6&#45;&gt;n7 -->
<g id="edge7" class="edge">
<title>n6&#45;&gt;n7</title>
<path fill="none" stroke="#8b9c92" d="M1997.66,-18C2020.55,-18 2043.82,-18 2065.47,-18"/>
<polygon fill="#8b9c92" stroke="#8b9c92" points="2065.46,-21.5 2075.46,-18 2065.46,-14.5 2065.46,-21.5"/>
<text text-anchor="middle" x="2037.28" y="-22.95" font-family="PingFang SC" font-size="9.00" fill="#52675c">阅读路径</text>
</g>
<!-- n8 -->
<g id="node9" class="node">
<title>n8</title>
<path fill="#e1eee9" stroke="#b8c4ba" d="M2515.36,-36C2515.36,-36 2349.07,-36 2349.07,-36 2343.07,-36 2337.07,-30 2337.07,-24 2337.07,-24 2337.07,-12 2337.07,-12 2337.07,-6 2343.07,0 2349.07,0 2349.07,0 2515.36,0 2515.36,0 2521.36,0 2527.36,-6 2527.36,-12 2527.36,-12 2527.36,-24 2527.36,-24 2527.36,-30 2521.36,-36 2515.36,-36"/>
<text text-anchor="middle" x="2432.21" y="-15.22" font-family="PingFang SC" font-size="12.00" fill="#203c33">填空 2（interrupt：人审暂停）</text>
</g>
<!-- n7&#45;&gt;n8 -->
<g id="edge8" class="edge">
<title>n7&#45;&gt;n8</title>
<path fill="none" stroke="#8b9c92" d="M2257.23,-18C2279.16,-18 2302.85,-18 2325.49,-18"/>
<polygon fill="#8b9c92" stroke="#8b9c92" points="2325.34,-21.5 2335.34,-18 2325.34,-14.5 2325.34,-21.5"/>
<text text-anchor="middle" x="2297.07" y="-22.95" font-family="PingFang SC" font-size="9.00" fill="#52675c">阅读路径</text>
</g>
<!-- n9 -->
<g id="node10" class="node">
<title>n9</title>
<path fill="#e1eee9" stroke="#b8c4ba" d="M2859.9,-36C2859.9,-36 2619.36,-36 2619.36,-36 2613.36,-36 2607.36,-30 2607.36,-24 2607.36,-24 2607.36,-12 2607.36,-12 2607.36,-6 2613.36,0 2619.36,0 2619.36,0 2859.9,0 2859.9,0 2865.9,0 2871.9,-6 2871.9,-12 2871.9,-12 2871.9,-24 2871.9,-24 2871.9,-30 2865.9,-36 2859.9,-36"/>
<text text-anchor="middle" x="2739.63" y="-15.22" font-family="PingFang SC" font-size="12.00" fill="#203c33">填空 3（Command(resume=...)：恢复执行）</text>
</g>
<!-- n8&#45;&gt;n9 -->
<g id="edge9" class="edge">
<title>n8&#45;&gt;n9</title>
<path fill="none" stroke="#8b9c92" d="M2527.76,-18C2549.29,-18 2572.63,-18 2595.68,-18"/>
<polygon fill="#8b9c92" stroke="#8b9c92" points="2595.44,-21.5 2605.44,-18 2595.44,-14.5 2595.44,-21.5"/>
<text text-anchor="middle" x="2567.36" y="-22.95" font-family="PingFang SC" font-size="9.00" fill="#52675c">阅读路径</text>
</g>
<!-- n10 -->
<g id="node11" class="node">
<title>n10</title>
<path fill="#e1eee9" stroke="#b8c4ba" d="M3010.94,-36C3010.94,-36 2963.9,-36 2963.9,-36 2957.9,-36 2951.9,-30 2951.9,-24 2951.9,-24 2951.9,-12 2951.9,-12 2951.9,-6 2957.9,0 2963.9,0 2963.9,0 3010.94,0 3010.94,0 3016.94,0 3022.94,-6 3022.94,-12 3022.94,-12 3022.94,-24 3022.94,-24 3022.94,-30 3016.94,-36 3010.94,-36"/>
<text text-anchor="middle" x="2987.42" y="-15.22" font-family="PingFang SC" font-size="12.00" fill="#203c33">自检挑战</text>
</g>
<!-- n9&#45;&gt;n10 -->
<g id="edge10" class="edge">
<title>n9&#45;&gt;n10</title>
<path fill="none" stroke="#8b9c92" d="M2872.16,-18C2896.66,-18 2920.7,-18 2940.36,-18"/>
<polygon fill="#8b9c92" stroke="#8b9c92" points="2940.19,-21.5 2950.19,-18 2940.19,-14.5 2940.19,-21.5"/>
<text text-anchor="middle" x="2911.9" y="-22.95" font-family="PingFang SC" font-size="9.00" fill="#52675c">阅读路径</text>
</g>
<!-- n11 -->
<g id="node12" class="node">
<title>n11</title>
<path fill="#e1eee9" stroke="#b8c4ba" d="M3227.98,-36C3227.98,-36 3096.94,-36 3096.94,-36 3090.94,-36 3084.94,-30 3084.94,-24 3084.94,-24 3084.94,-12 3084.94,-12 3084.94,-6 3090.94,0 3096.94,0 3096.94,0 3227.98,0 3227.98,0 3233.98,0 3239.98,-6 3239.98,-12 3239.98,-12 3239.98,-24 3239.98,-24 3239.98,-30 3233.98,-36 3227.98,-36"/>
<text text-anchor="middle" x="3162.46" y="-15.22" font-family="PingFang SC" font-size="12.00" fill="#203c33">回到练习验证并解释取舍</text>
</g>
<!-- n10&#45;&gt;n11 -->
<g id="edge11" class="edge">
<title>n10&#45;&gt;n11</title>
<path fill="none" stroke="#8b9c92" d="M3023.44,-18C3038.01,-18 3055.64,-18 3073.36,-18"/>
<polygon fill="#8b9c92" stroke="#8b9c92" points="3073.17,-21.5 3083.17,-18 3073.17,-14.5 3073.17,-21.5"/>
<text text-anchor="middle" x="3053.94" y="-22.95" font-family="PingFang SC" font-size="9.00" fill="#52675c">应用</text>
</g>
</g>
</svg>
