<?xml version="1.0" encoding="UTF-8" standalone="no"?>
<!DOCTYPE svg PUBLIC "-//W3C//DTD SVG 1.1//EN"
 "http://www.w3.org/Graphics/SVG/1.1/DTD/svg11.dtd">
<!-- Generated by graphviz version 12.2.1 (20241206.2353)
 -->
<!-- Title: G Pages: 1 -->
<svg width="3028pt" height="86pt"
 viewBox="0.00 0.00 3027.88 86.40" xmlns="http://www.w3.org/2000/svg" xmlns:xlink="http://www.w3.org/1999/xlink">
<g id="graph0" class="graph" transform="scale(1 1) rotate(0) translate(25.2 61.2)">
<title>G</title>
<!-- n0 -->
<g id="node1" class="node">
<title>n0</title>
<path fill="#243e36" stroke="#b8c4ba" d="M137.04,-36C137.04,-36 12,-36 12,-36 6,-36 0,-30 0,-24 0,-24 0,-12 0,-12 0,-6 6,0 12,0 12,0 137.04,0 137.04,0 143.04,0 149.04,-6 149.04,-12 149.04,-12 149.04,-24 149.04,-24 149.04,-30 143.04,-36 137.04,-36"/>
<text text-anchor="middle" x="74.52" y="-15.22" font-family="PingFang SC" font-size="12.00" fill="#ffffff">带着当前文件/问题阅读</text>
</g>
<!-- n1 -->
<g id="node2" class="node">
<title>n1</title>
<path fill="#e1eee9" stroke="#b8c4ba" d="M415.58,-36C415.58,-36 241.04,-36 241.04,-36 235.04,-36 229.04,-30 229.04,-24 229.04,-24 229.04,-12 229.04,-12 229.04,-6 235.04,0 241.04,0 241.04,0 415.58,0 415.58,0 421.58,0 427.58,-6 427.58,-12 427.58,-12 427.58,-24 427.58,-24 427.58,-30 421.58,-36 415.58,-36"/>
<text text-anchor="middle" x="328.31" y="-15.22" font-family="PingFang SC" font-size="12.00" fill="#203c33">关卡 3&#45;7 · embedding 模型选型</text>
</g>
<!-- n0&#45;&gt;n1 -->
<g id="edge1" class="edge">
<title>n0&#45;&gt;n1</title>
<path fill="none" stroke="#8b9c92" d="M149.36,-18C170.69,-18 194.43,-18 217.45,-18"/>
<polygon fill="#8b9c92" stroke="#8b9c92" points="217.16,-21.5 227.16,-18 217.16,-14.5 217.16,-21.5"/>
<text text-anchor="middle" x="189.04" y="-22.95" font-family="PingFang SC" font-size="9.00" fill="#52675c">阅读路径</text>
</g>
<!-- n2 -->
<g id="node3" class="node">
<title>n2</title>
<path fill="#e1eee9" stroke="#b8c4ba" d="M698.62,-36C698.62,-36 519.58,-36 519.58,-36 513.58,-36 507.58,-30 507.58,-24 507.58,-24 507.58,-12 507.58,-12 507.58,-6 513.58,0 519.58,0 519.58,0 698.62,0 698.62,0 704.62,0 710.62,-6 710.62,-12 710.62,-12 710.62,-24 710.62,-24 710.62,-30 704.62,-36 698.62,-36"/>
<text text-anchor="middle" x="609.1" y="-15.22" font-family="PingFang SC" font-size="12.00" fill="#203c33">一、主流模型一张表（中文视角）</text>
</g>
<!-- n1&#45;&gt;n2 -->
<g id="edge2" class="edge">
<title>n1&#45;&gt;n2</title>
<path fill="none" stroke="#8b9c92" d="M427.99,-18C449.97,-18 473.43,-18 495.9,-18"/>
<polygon fill="#8b9c92" stroke="#8b9c92" points="495.68,-21.5 505.68,-18 495.68,-14.5 495.68,-21.5"/>
<text text-anchor="middle" x="467.58" y="-22.95" font-family="PingFang SC" font-size="9.00" fill="#52675c">阅读路径</text>
</g>
<!-- n3 -->
<g id="node4" class="node">
<title>n3</title>
<path fill="#e1eee9" stroke="#b8c4ba" d="M921.66,-36C921.66,-36 802.62,-36 802.62,-36 796.62,-36 790.62,-30 790.62,-24 790.62,-24 790.62,-12 790.62,-12 790.62,-6 796.62,0 802.62,0 802.62,0 921.66,0 921.66,0 927.66,0 933.66,-6 933.66,-12 933.66,-12 933.66,-24 933.66,-24 933.66,-30 927.66,-36 921.66,-36"/>
<text text-anchor="middle" x="862.14" y="-15.22" font-family="PingFang SC" font-size="12.00" fill="#203c33">二、三个核心决策维度</text>
</g>
<!-- n2&#45;&gt;n3 -->
<g id="edge3" class="edge">
<title>n2&#45;&gt;n3</title>
<path fill="none" stroke="#8b9c92" d="M710.76,-18C733.31,-18 756.97,-18 778.68,-18"/>
<polygon fill="#8b9c92" stroke="#8b9c92" points="778.66,-21.5 788.66,-18 778.66,-14.5 778.66,-21.5"/>
<text text-anchor="middle" x="750.62" y="-22.95" font-family="PingFang SC" font-size="9.00" fill="#52675c">阅读路径</text>
</g>
<!-- n4 -->
<g id="node5" class="node">
<title>n4</title>
<path fill="#e1eee9" stroke="#b8c4ba" d="M1203.95,-36C1203.95,-36 1025.66,-36 1025.66,-36 1019.66,-36 1013.66,-30 1013.66,-24 1013.66,-24 1013.66,-12 1013.66,-12 1013.66,-6 1019.66,0 1025.66,0 1025.66,0 1203.95,0 1203.95,0 1209.95,0 1215.95,-6 1215.95,-12 1215.95,-12 1215.95,-24 1215.95,-24 1215.95,-30 1209.95,-36 1203.95,-36"/>
<text text-anchor="middle" x="1114.8" y="-15.22" font-family="PingFang SC" font-size="12.00" fill="#203c33">1. 中文效果（最容易被忽略的坑）</text>
</g>
<!-- n3&#45;&gt;n4 -->
<g id="edge4" class="edge">
<title>n3&#45;&gt;n4</title>
<path fill="none" stroke="#8b9c92" d="M933.97,-18C955.12,-18 978.84,-18 1001.94,-18"/>
<polygon fill="#8b9c92" stroke="#8b9c92" points="1001.71,-21.5 1011.71,-18 1001.71,-14.5 1001.71,-21.5"/>
<text text-anchor="middle" x="973.66" y="-22.95" font-family="PingFang SC" font-size="9.00" fill="#52675c">阅读路径</text>
</g>
<!-- n5 -->
<g id="node6" class="node">
<title>n5</title>
<path fill="#e1eee9" stroke="#b8c4ba" d="M1472.74,-36C1472.74,-36 1307.95,-36 1307.95,-36 1301.95,-36 1295.95,-30 1295.95,-24 1295.95,-24 1295.95,-12 1295.95,-12 1295.95,-6 1301.95,0 1307.95,0 1307.95,0 1472.74,0 1472.74,0 1478.74,0 1484.74,-6 1484.74,-12 1484.74,-12 1484.74,-24 1484.74,-24 1484.74,-30 1478.74,-36 1472.74,-36"/>
<text text-anchor="middle" x="1390.34" y="-15.22" font-family="PingFang SC" font-size="12.00" fill="#203c33">2. 维度 vs 成本（维度的本质）</text>
</g>
<!-- n4&#45;&gt;n5 -->
<g id="edge5" class="edge">
<title>n4&#45;&gt;n5</title>
<path fill="none" stroke="#8b9c92" d="M1216.11,-18C1238.41,-18 1262.11,-18 1284.59,-18"/>
<polygon fill="#8b9c92" stroke="#8b9c92" points="1284.36,-21.5 1294.36,-18 1284.36,-14.5 1284.36,-21.5"/>
<text text-anchor="middle" x="1255.95" y="-22.95" font-family="PingFang SC" font-size="9.00" fill="#52675c">阅读路径</text>
</g>
<!-- n6 -->
<g id="node7" class="node">
<title>n6</title>
<path fill="#e1eee9" stroke="#b8c4ba" d="M1652.28,-36C1652.28,-36 1576.74,-36 1576.74,-36 1570.74,-36 1564.74,-30 1564.74,-24 1564.74,-24 1564.74,-12 1564.74,-12 1564.74,-6 1570.74,0 1576.74,0 1576.74,0 1652.28,0 1652.28,0 1658.28,0 1664.28,-6 1664.28,-12 1664.28,-12 1664.28,-24 1664.28,-24 1664.28,-30 1658.28,-36 1652.28,-36"/>
<text text-anchor="middle" x="1614.51" y="-15.22" font-family="PingFang SC" font-size="12.00" fill="#203c33">3. API vs 本地</text>
</g>
<!-- n5&#45;&gt;n6 -->
<g id="edge6" class="edge">
<title>n5&#45;&gt;n6</title>
<path fill="none" stroke="#8b9c92" d="M1484.92,-18C1507.93,-18 1531.97,-18 1552.96,-18"/>
<polygon fill="#8b9c92" stroke="#8b9c92" points="1552.76,-21.5 1562.76,-18 1552.76,-14.5 1552.76,-21.5"/>
<text text-anchor="middle" x="1524.74" y="-22.95" font-family="PingFang SC" font-size="9.00" fill="#52675c">阅读路径</text>
</g>
<!-- n7 -->
<g id="node8" class="node">
<title>n7</title>
<path fill="#e1eee9" stroke="#b8c4ba" d="M1947.32,-36C1947.32,-36 1756.28,-36 1756.28,-36 1750.28,-36 1744.28,-30 1744.28,-24 1744.28,-24 1744.28,-12 1744.28,-12 1744.28,-6 1750.28,0 1756.28,0 1756.28,0 1947.32,0 1947.32,0 1953.32,0 1959.32,-6 1959.32,-12 1959.32,-12 1959.32,-24 1959.32,-24 1959.32,-30 1953.32,-36 1947.32,-36"/>
<text text-anchor="middle" x="1851.8" y="-15.22" font-family="PingFang SC" font-size="12.00" fill="#203c33">三、选型决策树（拿到需求照着走）</text>
</g>
<!-- n6&#45;&gt;n7 -->
<g id="edge7" class="edge">
<title>n6&#45;&gt;n7</title>
<path fill="none" stroke="#8b9c92" d="M1664.55,-18C1684.55,-18 1708.61,-18 1732.7,-18"/>
<polygon fill="#8b9c92" stroke="#8b9c92" points="1732.62,-21.5 1742.62,-18 1732.62,-14.5 1732.62,-21.5"/>
<text text-anchor="middle" x="1704.28" y="-22.95" font-family="PingFang SC" font-size="9.00" fill="#52675c">阅读路径</text>
</g>
<!-- n8 -->
<g id="node9" class="node">
<title>n8</title>
<path fill="#e1eee9" stroke="#b8c4ba" d="M2218.36,-36C2218.36,-36 2051.32,-36 2051.32,-36 2045.32,-36 2039.32,-30 2039.32,-24 2039.32,-24 2039.32,-12 2039.32,-12 2039.32,-6 2045.32,0 2051.32,0 2051.32,0 2218.36,0 2218.36,0 2224.36,0 2230.36,-6 2230.36,-12 2230.36,-12 2230.36,-24 2230.36,-24 2230.36,-30 2224.36,-36 2218.36,-36"/>
<text text-anchor="middle" x="2134.84" y="-15.22" font-family="PingFang SC" font-size="12.00" fill="#203c33">四、两条进阶思路（面试加分）</text>
</g>
<!-- n7&#45;&gt;n8 -->
<g id="edge8" class="edge">
<title>n7&#45;&gt;n8</title>
<path fill="none" stroke="#8b9c92" d="M1959.45,-18C1981.9,-18 2005.58,-18 2028,-18"/>
<polygon fill="#8b9c92" stroke="#8b9c92" points="2027.73,-21.5 2037.73,-18 2027.73,-14.5 2027.73,-21.5"/>
<text text-anchor="middle" x="1999.32" y="-22.95" font-family="PingFang SC" font-size="9.00" fill="#52675c">阅读路径</text>
</g>
<!-- n9 -->
<g id="node10" class="node">
<title>n9</title>
<path fill="#e1eee9" stroke="#b8c4ba" d="M2477.4,-36C2477.4,-36 2322.36,-36 2322.36,-36 2316.36,-36 2310.36,-30 2310.36,-24 2310.36,-24 2310.36,-12 2310.36,-12 2310.36,-6 2316.36,0 2322.36,0 2322.36,0 2477.4,0 2477.4,0 2483.4,0 2489.4,-6 2489.4,-12 2489.4,-12 2489.4,-24 2489.4,-24 2489.4,-30 2483.4,-36 2477.4,-36"/>
<text text-anchor="middle" x="2399.88" y="-15.22" font-family="PingFang SC" font-size="12.00" fill="#203c33">五、面试标准答法（背下来）</text>
</g>
<!-- n8&#45;&gt;n9 -->
<g id="edge9" class="edge">
<title>n8&#45;&gt;n9</title>
<path fill="none" stroke="#8b9c92" d="M2230.8,-18C2252.96,-18 2276.62,-18 2298.98,-18"/>
<polygon fill="#8b9c92" stroke="#8b9c92" points="2298.68,-21.5 2308.68,-18 2298.68,-14.5 2298.68,-21.5"/>
<text text-anchor="middle" x="2270.36" y="-22.95" font-family="PingFang SC" font-size="9.00" fill="#52675c">阅读路径</text>
</g>
<!-- n10 -->
<g id="node11" class="node">
<title>n10</title>
<path fill="#e1eee9" stroke="#b8c4ba" d="M2748.44,-36C2748.44,-36 2581.4,-36 2581.4,-36 2575.4,-36 2569.4,-30 2569.4,-24 2569.4,-24 2569.4,-12 2569.4,-12 2569.4,-6 2575.4,0 2581.4,0 2581.4,0 2748.44,0 2748.44,0 2754.44,0 2760.44,-6 2760.44,-12 2760.44,-12 2760.44,-24 2760.44,-24 2760.44,-30 2754.44,-36 2748.44,-36"/>
<text text-anchor="middle" x="2664.92" y="-15.22" font-family="PingFang SC" font-size="12.00" fill="#203c33">六、自检清单（讲不清就重看）</text>
</g>
<!-- n9&#45;&gt;n10 -->
<g id="edge10" class="edge">
<title>n9&#45;&gt;n10</title>
<path fill="none" stroke="#8b9c92" d="M2489.57,-18C2511.51,-18 2535.24,-18 2557.92,-18"/>
<polygon fill="#8b9c92" stroke="#8b9c92" points="2557.8,-21.5 2567.8,-18 2557.8,-14.5 2557.8,-21.5"/>
<text text-anchor="middle" x="2529.4" y="-22.95" font-family="PingFang SC" font-size="9.00" fill="#52675c">阅读路径</text>
</g>
<!-- n11 -->
<g id="node12" class="node">
<title>n11</title>
<path fill="#e1eee9" stroke="#b8c4ba" d="M2965.48,-36C2965.48,-36 2834.44,-36 2834.44,-36 2828.44,-36 2822.44,-30 2822.44,-24 2822.44,-24 2822.44,-12 2822.44,-12 2822.44,-6 2828.44,0 2834.44,0 2834.44,0 2965.48,0 2965.48,0 2971.48,0 2977.48,-6 2977.48,-12 2977.48,-12 2977.48,-24 2977.48,-24 2977.48,-30 2971.48,-36 2965.48,-36"/>
<text text-anchor="middle" x="2899.96" y="-15.22" font-family="PingFang SC" font-size="12.00" fill="#203c33">回到练习验证并解释取舍</text>
</g>
<!-- n10&#45;&gt;n11 -->
<g id="edge11" class="edge">
<title>n10&#45;&gt;n11</title>
<path fill="none" stroke="#8b9c92" d="M2760.71,-18C2777.29,-18 2794.49,-18 2810.88,-18"/>
<polygon fill="#8b9c92" stroke="#8b9c92" points="2810.58,-21.5 2820.58,-18 2810.58,-14.5 2810.58,-21.5"/>
<text text-anchor="middle" x="2791.44" y="-22.95" font-family="PingFang SC" font-size="9.00" fill="#52675c">应用</text>
</g>
</g>
</svg>
